<?xml version="1.0" standalone="no"?>
<!DOCTYPE svg PUBLIC "-//W3C//DTD SVG 20010904//EN"
 "http://www.w3.org/TR/2001/REC-SVG-20010904/DTD/svg10.dtd">
<svg version="1.0" xmlns="http://www.w3.org/2000/svg"
 width="512.000000pt" height="512.000000pt" viewBox="0 0 512.000000 512.000000"
 preserveAspectRatio="xMidYMid meet">

<g transform="translate(0.000000,512.000000) scale(0.100000,-0.100000)"
fill="#000000" stroke="none">
<path d="M3797 4451 c-16 -78 -130 -148 -224 -138 -50 5 -52 4 -43 -14 21 -38
84 -70 139 -71 113 0 191 100 161 210 -13 49 -25 54 -33 13z"/>
<path d="M1991 3932 c-10 -20 -53 -167 -77 -265 -10 -39 -13 -72 -8 -77 5 -4
49 -20 99 -35 49 -15 143 -47 209 -71 65 -25 120 -43 122 -41 2 2 0 28 -6 57
-13 67 -13 197 0 274 5 33 8 61 6 64 -5 4 -215 76 -283 96 -49 14 -54 14 -62
-2z"/>
<path d="M2702 2913 c-29 -139 -118 -242 -275 -317 -51 -24 -113 -49 -139 -55
-65 -15 -186 -14 -241 3 -26 8 -47 11 -47 7 0 -15 57 -87 100 -125 64 -58 140
-89 232 -94 l78 -5 0 -31 c0 -101 69 -206 162 -246 104 -45 233 -12 307 77 17
20 29 39 27 41 -2 2 -23 -2 -47 -8 -60 -17 -135 -5 -216 34 -84 41 -146 101
-167 163 -23 66 -20 85 17 120 50 48 95 66 177 72 l74 6 20 50 c37 97 20 273
-32 343 -18 23 -18 23 -30 -35z"/>
<path d="M3821 1798 c-39 -103 -7 -204 82 -261 84 -55 195 -40 262 34 20 22
35 42 33 44 -2 2 -21 0 -43 -5 -53 -13 -126 3 -192 40 -58 33 -95 76 -113 133
-14 43 -17 45 -29 15z"/>
<path d="M1950 1579 c-47 -15 -93 -28 -102 -29 -33 0 -17 -15 49 -45 81 -36
166 -112 199 -178 23 -44 28 -48 52 -42 48 12 312 119 312 126 0 4 -10 11 -22
15 -13 3 -106 47 -207 95 -101 49 -187 89 -190 88 -3 -1 -44 -14 -91 -30z"/>
<path d="M3010 1198 c0 -5 -20 -62 -45 -125 -25 -64 -44 -117 -43 -119 2 -1
28 2 58 8 81 15 163 3 228 -32 31 -16 56 -29 58 -27 5 6 74 197 74 206 0 5
-24 15 -52 21 -29 7 -104 27 -165 45 -62 18 -113 28 -113 23z"/>
<path d="M1537 839 c-30 -103 -123 -180 -257 -215 -59 -15 -123 -14 -168 3
-25 10 18 -54 56 -83 50 -39 96 -54 165 -54 107 0 193 56 238 155 25 53 25
156 0 210 l-18 40 -16 -56z"/>
</g>
</svg>
